<svg width="709" height="462" viewBox="0 0 709 462" fill="none" xmlns="http://www.w3.org/2000/svg">
<g clip-path="url(#clip0_5_11)">
<path d="M270.762 0H218.452V298.471C218.452 331.54 245.365 358.432 278.46 358.432H383.807V306.163H285.552C277.49 305.921 271.065 299.561 270.762 291.506V168.617C271.065 160.985 276.884 154.929 284.339 154.081H383.807V101.812H270.762V0Z" fill="white"/>
<path d="M115.651 290.961C115.651 299.258 109.044 305.981 100.801 306.163H0V358.432H108.014C141.109 358.432 168.022 331.54 168.022 298.471V0H115.712V290.961H115.651Z" fill="white"/>
<path d="M649.057 101.872H541.043V154.141H643.056C650.693 154.989 656.573 161.288 656.694 169.101V291.142C656.634 299.379 650.027 305.981 641.844 306.223H541.043V332.388H540.922V462.06H593.232V358.552H649.057C682.152 358.552 709.065 331.661 709.065 298.592V161.894C709.065 128.824 682.152 101.933 649.057 101.933" fill="white"/>
<path d="M591.716 215.979H477.519V101.872H449.031V215.979H334.835V244.446H449.031V358.552H477.519V244.446H591.716V215.979Z" fill="white"/>
</g>
<defs>
<clipPath id="clip0_5_11">
<rect width="709" height="462" fill="white"/>
</clipPath>
</defs>
</svg>
